name ./resultDataOpenSim/trcMotMarkerGrf/sub10/grf-05-02.mot
datacolumns 19
datarows 22
range 1.06000000 1.14400000
endheader

                time	     ground_force_vx	     ground_force_vy	     ground_force_vz	     ground_force_px	     ground_force_py	     ground_force_pz	   l_ground_force_vx	   l_ground_force_vy	   l_ground_force_vz	   l_ground_force_px	   l_ground_force_py	   l_ground_force_pz	     ground_torque_x	     ground_torque_y	     ground_torque_z	   l_ground_torque_x	   l_ground_torque_y	   l_ground_torque_z	
          1.06000000	          0.00000000	          0.00000000	          0.00000000	          0.00000000	          0.00000000	          0.00000000	         16.60032794	        255.18499287	         16.08317366	          0.02624244	         -0.10000000	         -0.02162544	          0.00000000	          0.00000000	          0.00000000	          0.00000000	         -1.97185574	          0.00000000	
          1.06400000	          0.00000000	          0.00000000	          0.00000000	          0.00000000	          0.00000000	          0.00000000	         17.02907971	        264.38039624	         15.17203438	          0.02633461	         -0.10000000	         -0.02088436	          0.00000000	          0.00000000	          0.00000000	          0.00000000	         -2.20766471	          0.00000000	
          1.06800000	          0.00000000	          0.00000000	          0.00000000	          0.00000000	          0.00000000	          0.00000000	         17.21649588	        274.80000890	         14.11579989	          0.02659288	         -0.10000000	         -0.02002570	          0.00000000	          0.00000000	          0.00000000	          0.00000000	         -2.46438163	          0.00000000	
          1.07200000	          0.00000000	          0.00000000	          0.00000000	          0.00000000	          0.00000000	          0.00000000	         17.26749148	        286.34996735	         12.94194234	          0.02690108	         -0.10000000	         -0.01909350	          0.00000000	          0.00000000	          0.00000000	          0.00000000	         -2.74216916	          0.00000000	
          1.07600000	          0.00000000	          0.00000000	          0.00000000	          0.00000000	          0.00000000	          0.00000000	         17.33202200	        298.93710639	         11.67719045	          0.02721739	         -0.10000000	         -0.01809969	          0.00000000	          0.00000000	          0.00000000	          0.00000000	         -3.04077969	          0.00000000	
          1.08000000	          0.00000000	          0.00000000	          0.00000000	          0.00000000	          0.00000000	          0.00000000	         17.56936608	        312.46003073	         10.34000558	          0.02754514	         -0.10000000	         -0.01704886	          0.00000000	          0.00000000	          0.00000000	          0.00000000	         -3.35954173	          0.00000000	
          1.08400000	          0.00000000	          0.00000000	          0.00000000	          0.00000000	          0.00000000	          0.00000000	         18.09841507	        326.87518015	          8.94377946	          0.02787019	         -0.10000000	         -0.01596907	          0.00000000	          0.00000000	          0.00000000	          0.00000000	         -3.69746801	          0.00000000	
          1.08800000	          0.00000000	          0.00000000	          0.00000000	          0.00000000	          0.00000000	          0.00000000	         18.97460366	        342.27024253	          7.50272417	          0.02818208	         -0.10000000	         -0.01488875	          0.00000000	          0.00000000	          0.00000000	          0.00000000	         -4.05337641	          0.00000000	
          1.09200000	          0.00000000	          0.00000000	          0.00000000	          0.00000000	          0.00000000	          0.00000000	         20.20267098	        358.88290524	          6.03745381	          0.02845579	         -0.10000000	         -0.01385615	          0.00000000	          0.00000000	          0.00000000	          0.00000000	         -4.42589112	          0.00000000	
          1.09600000	          0.00000000	          0.00000000	          0.00000000	          0.00000000	          0.00000000	          0.00000000	         21.76423491	        377.04478187	          4.57670943	          0.02862878	         -0.10000000	         -0.01292816	          0.00000000	          0.00000000	          0.00000000	          0.00000000	         -4.81328110	          0.00000000	
          1.10000000	          0.00000000	          0.00000000	          0.00000000	          0.00000000	          0.00000000	          0.00000000	         23.64521743	        397.03582606	          3.15123646	          0.02869469	         -0.10000000	         -0.01212085	          0.00000000	          0.00000000	          0.00000000	          0.00000000	         -5.21320678	          0.00000000	
          1.10400000	          0.00000000	          0.00000000	          0.00000000	          0.00000000	          0.00000000	          0.00000000	         25.85322648	        418.96689716	          1.79177372	          0.02869547	         -0.10000000	         -0.01142126	          0.00000000	          0.00000000	          0.00000000	          0.00000000	         -5.62248134	          0.00000000	
          1.10800000	          0.00000000	          0.00000000	          0.00000000	          0.00000000	          0.00000000	          0.00000000	         28.41003000	        442.81300028	          0.53498019	          0.02867601	         -0.10000000	         -0.01080669	          0.00000000	          0.00000000	          0.00000000	          0.00000000	         -6.03694940	          0.00000000	
          1.11200000	          0.00000000	          0.00000000	          0.00000000	          0.00000000	          0.00000000	          0.00000000	         31.31860776	        468.49727397	         -0.58021366	          0.02866354	         -0.10000000	         -0.01025815	          0.00000000	          0.00000000	          0.00000000	          0.00000000	         -6.45158031	          0.00000000	
          1.11600000	          0.00000000	          0.00000000	          0.00000000	          0.00000000	          0.00000000	          0.00000000	         34.55094579	        495.89617087	         -1.52322794	          0.02868922	         -0.10000000	         -0.00974609	          0.00000000	          0.00000000	          0.00000000	          0.00000000	         -6.86079525	          0.00000000	
          1.12000000	          0.00000000	          0.00000000	          0.00000000	          0.00000000	          0.00000000	          0.00000000	         38.07829850	        524.79380920	         -2.27659408	          0.02876783	         -0.10000000	         -0.00924969	          0.00000000	          0.00000000	          0.00000000	          0.00000000	         -7.25892966	          0.00000000	
          1.12400000	          0.00000000	          0.00000000	          0.00000000	          0.00000000	          0.00000000	          0.00000000	         41.89359406	        554.86450568	         -2.84713408	          0.02886824	         -0.10000000	         -0.00877486	          0.00000000	          0.00000000	          0.00000000	          0.00000000	         -7.64067399	          0.00000000	
          1.12800000	          0.00000000	          0.00000000	          0.00000000	          0.00000000	          0.00000000	          0.00000000	         46.01649551	        585.70932801	         -3.28000166	          0.02892030	         -0.10000000	         -0.00834898	          0.00000000	          0.00000000	          0.00000000	          0.00000000	         -8.00133957	          0.00000000	
          1.13200000	          0.00000000	          0.00000000	          0.00000000	          0.00000000	          0.00000000	          0.00000000	         50.50599254	        616.91357229	         -3.64395035	          0.02888157	         -0.10000000	         -0.00799930	          0.00000000	          0.00000000	          0.00000000	          0.00000000	         -8.33688164	          0.00000000	
          1.13600000	          0.00000000	          0.00000000	          0.00000000	          0.00000000	          0.00000000	          0.00000000	         55.44997742	        648.09314050	         -3.98750280	          0.02876124	         -0.10000000	         -0.00772250	          0.00000000	          0.00000000	          0.00000000	          0.00000000	         -8.64379162	          0.00000000	
          1.14000000	          0.00000000	          0.00000000	          0.00000000	          0.00000000	          0.00000000	          0.00000000	         60.92452757	        678.93407137	         -4.30737109	          0.02857213	         -0.10000000	         -0.00750218	          0.00000000	          0.00000000	          0.00000000	          0.00000000	         -8.91909455	          0.00000000	
          1.14400000	          0.00000000	          0.00000000	          0.00000000	          0.00000000	          0.00000000	          0.00000000	         66.96835070	        709.21553737	         -4.56050990	          0.02831319	         -0.10000000	         -0.00732619	          0.00000000	          0.00000000	          0.00000000	          0.00000000	         -9.16060654	          0.00000000	
